<svg width="20" height="18" viewBox="0 0 20 18" fill="none" xmlns="http://www.w3.org/2000/svg">
<path d="M18.9084 1.6182C18.841 1.56559 18.7625 1.52904 18.6788 1.51133C18.5952 1.49363 18.5086 1.49523 18.4256 1.51602L12.6281 2.96539L6.81562 0.0591411C6.69544 -0.000807585 6.55776 -0.0157721 6.4275 0.0169535L0.4275 1.51695C0.305704 1.54706 0.197471 1.61703 0.120009 1.71572C0.0425482 1.81442 0.000306167 1.93618 9.22799e-10 2.06164V15.5616C-4.89751e-06 15.6472 0.0194918 15.7316 0.0570075 15.8084C0.0945232 15.8853 0.14907 15.9526 0.2165 16.0052C0.28393 16.0578 0.362468 16.0943 0.446142 16.112C0.529816 16.1297 0.616422 16.1281 0.699375 16.1073L6.49688 14.6579L12.3094 17.5641C12.4296 17.6241 12.5672 17.6391 12.6975 17.6063L18.6975 16.1063C18.8193 16.0762 18.9275 16.0063 19.005 15.9076C19.0825 15.8089 19.1247 15.6871 19.125 15.5616V2.06164C19.125 1.97613 19.1055 1.89174 19.0679 1.81491C19.0304 1.73807 18.9759 1.67079 18.9084 1.6182ZM7.125 1.47195L12 3.90945V16.1513L7.125 13.7138V1.47195ZM1.125 2.5032L6 1.28445V13.6229L1.125 14.8416V2.5032ZM18 15.1229L13.125 16.3416V4.00039L18 2.78164V15.1229Z" fill="#021E4C"/>
</svg>
